<svg width="111" height="21" viewBox="0 0 111 21" fill="none" xmlns="http://www.w3.org/2000/svg">
<path d="M10.032 20.28C13.196 20.28 15.744 18.964 17.368 16.92L15.66 15.016C14.54 16.416 12.72 17.648 10.116 17.648C6.42 17.648 3.144 14.652 3.144 10.284C3.144 6 6.364 2.724 10.088 2.724C12.44 2.724 14.232 3.9 15.352 5.272L17.34 3.312C15.828 1.352 13.336 0.119999 10.088 0.119999C8.716 0.119999 7.372 0.483999 6.588 0.903999L3.872 3.732C1.94 5.692 0.512 8.24 0.512 10.844C0.512 16.304 4.656 20.28 10.032 20.28ZM23.3408 20V11.992C23.3408 9.416 24.7688 7.876 26.8408 7.876C28.9408 7.876 30.2008 9.416 30.2008 11.992V20H32.6648V11.32C32.6648 7.848 30.7048 5.608 27.3168 5.608C26.1688 5.608 25.4688 5.888 25.2448 6L23.3408 7.96V0.399999H20.8488V20H23.3408ZM39.747 8.128V5.888H37.255V20H39.747V11.6C39.747 9.612 40.783 8.464 42.743 8.464H44.507V5.888H41.931L39.747 8.128ZM50.3923 4.236V1.184H47.1443V4.236H50.3923ZM50.0283 20V5.888H47.5363V20H50.0283ZM58.479 20.28C59.403 20.28 60.243 20.112 60.607 19.944L62.007 18.516C63.015 17.508 63.463 16.472 63.463 15.436C63.463 13.952 62.623 12.44 59.935 11.74L58.227 11.292C56.911 10.956 56.295 10.48 56.295 9.64C56.295 8.66 57.107 7.848 58.535 7.848C59.907 7.848 60.719 8.632 60.831 9.78H63.351C63.351 7.26 61.615 5.608 58.731 5.608C57.695 5.608 56.995 5.86 56.687 6.028L55.315 7.428C54.279 8.492 53.999 9.444 53.999 10.34C53.999 11.628 54.587 13.056 57.191 13.756L58.927 14.232C60.551 14.68 61.083 15.324 61.083 16.136C61.083 17.144 60.243 18.012 58.647 18.012C57.471 18.012 56.463 17.564 56.267 16.248H53.747C53.747 18.768 55.651 20.28 58.479 20.28ZM71.2004 5.888V1.688H68.7084V5.888H65.5444V8.212H68.7084V20H71.2004V8.212H74.3644V5.888H71.2004ZM80.3337 4.236V1.184H77.0857V4.236H80.3337ZM79.9697 20V5.888H77.4777V20H79.9697ZM87.1884 20V11.992C87.1884 9.416 88.6164 7.876 90.6884 7.876C92.7884 7.876 94.0484 9.416 94.0484 11.992V20H96.5124V11.32C96.5124 7.848 94.5244 5.608 91.2204 5.608C90.1564 5.608 89.4004 5.86 89.0924 6L87.1884 7.96V5.888H84.6964V20H87.1884ZM105.723 5.608C103.175 5.608 100.823 7.176 100.683 9.696H103.259C103.511 8.436 104.435 7.848 105.695 7.848C107.375 7.848 108.243 8.912 108.243 10.508V12.188C107.683 11.572 106.535 11.012 105.135 11.012C102.391 11.012 100.151 12.944 100.151 15.688C100.151 18.516 102.335 20.28 104.967 20.28C105.975 20.28 106.591 20.028 107.011 19.832L108.243 18.572V20H110.735V10.172C110.735 6.924 108.411 5.608 105.723 5.608ZM105.555 18.04C103.931 18.04 102.755 16.976 102.755 15.576C102.755 14.148 103.931 13.168 105.555 13.168C107.151 13.168 108.411 14.232 108.411 15.576C108.411 16.948 107.151 18.04 105.555 18.04Z" fill="#546CC0"/>
</svg>
