<svg width="332" height="21" viewBox="0 0 332 21" fill="none" xmlns="http://www.w3.org/2000/svg">
<path d="M13.0479 16.976L3.75189 0.399999H-0.000109315V20H2.57589L2.43589 3.032L11.9279 20H15.5119V0.399999H12.9079L13.0479 16.976ZM36.924 20L29.896 0.399999H26.088L19.06 20H21.748L23.568 14.904H32.304L34.096 20H36.924ZM27.964 2.5L31.436 12.44H24.436L27.964 2.5ZM56.0646 20L49.0366 0.399999H45.2286L38.2006 20H40.8886L42.7086 14.904H51.4446L53.2366 20H56.0646ZM47.1046 2.5L50.5766 12.44H43.5766L47.1046 2.5ZM69.0733 20L71.9573 17.06C74.0853 14.904 75.7933 12.58 75.7933 9.332C75.7933 4.18 71.8453 0.399999 66.3293 0.399999H59.6093V20H69.0733ZM62.1853 2.864H65.8253C70.1933 2.92 73.0773 5.944 73.0773 10.088C73.0773 14.568 69.8293 17.536 66.6373 17.536H62.1853V2.864ZM88.2137 20L94.9897 0.399999H92.2177L86.3937 17.676L80.5417 0.399999H77.7137L84.5177 20H88.2137ZM115.177 17.452L111.285 0.399999H107.645L103.669 17.48L99.3848 0.399999H96.5848L101.765 20H105.461L109.353 3.284L113.245 20H116.885L122.093 0.399999H119.349L115.177 17.452ZM128.439 20V11.376L136.195 20H140.003L131.603 11.656H135.495L137.483 9.668C138.827 8.324 139.583 7.008 139.583 5.356C139.583 2.472 137.035 0.399999 133.731 0.399999H125.863V20H128.439ZM128.439 2.808H133.339C135.411 2.808 136.951 4.152 136.951 6.14C136.951 8.1 135.411 9.444 133.339 9.444H128.439V2.808ZM160.622 17.452L156.73 0.399999H153.09L149.114 17.48L144.83 0.399999H142.03L147.21 20H150.906L154.798 3.284L158.69 20H162.33L167.538 0.399999H164.794L160.622 17.452ZM179.237 20.28C182.401 20.28 184.949 18.964 186.573 16.92L184.865 15.016C183.745 16.416 181.925 17.648 179.321 17.648C175.625 17.648 172.349 14.652 172.349 10.284C172.349 6 175.569 2.724 179.293 2.724C181.645 2.724 183.437 3.9 184.557 5.272L186.545 3.312C185.033 1.352 182.541 0.119999 179.293 0.119999C177.921 0.119999 176.577 0.483999 175.793 0.903999L173.077 3.732C171.145 5.692 169.717 8.24 169.717 10.844C169.717 16.304 173.861 20.28 179.237 20.28ZM200.666 17.284L194.898 0.399999H190.586V20H193.134L192.966 2.332L199.07 20H202.206L208.338 2.08L208.17 20H210.718V0.399999H206.378L200.666 17.284ZM233.083 17.452L229.191 0.399999H225.551L221.575 17.48L217.291 0.399999H214.491L219.671 20H223.367L227.259 3.284L231.151 20H234.791L239.999 0.399999H237.255L233.083 17.452ZM250.377 20V2.864H256.705V0.399999H241.445V2.864H247.773V20H250.377ZM268.491 20L275.267 0.399999H272.495L266.671 17.676L260.819 0.399999H257.991L264.795 20H268.491ZM290.47 8.66C291.394 7.708 292.234 6.588 292.234 4.992C292.234 2.836 290.386 0.399999 286.41 0.399999H278.906V20H288.342L290.498 17.844C292.066 16.248 292.794 15.24 292.794 13.56C292.794 11.824 291.422 10.144 289.602 9.556L290.47 8.66ZM286.158 2.836C288.258 2.836 289.602 4.04 289.602 5.832C289.602 7.54 288.258 8.856 286.158 8.856H281.482V2.836H286.158ZM281.482 17.564V11.236H286.41C288.986 11.236 290.134 12.72 290.134 14.372C290.134 15.94 288.986 17.564 286.578 17.564H281.482ZM304.336 20.28C305.456 20.28 306.408 20 306.828 19.832L309.264 17.312C311.252 15.268 311.728 14.036 311.728 11.152V0.399999H309.152V12.524C309.152 16.052 306.94 17.788 304.392 17.788C301.872 17.788 299.66 16.052 299.66 12.524V0.399999H297.056V12.776C297.056 17.816 300.276 20.28 304.336 20.28ZM317.803 20L323.095 12.076L328.331 20H331.411L324.635 9.892L331.019 0.399999H328.051L323.151 7.792L318.251 0.399999H315.199L321.583 9.892L314.835 20H317.803Z" fill="#535353"/>
</svg>
