<svg width="224" height="43" viewBox="0 0 224 43" fill="none" xmlns="http://www.w3.org/2000/svg">
<path d="M29.18 30.6L13.82 -2.86102e-06H0.86V42H9.86L9.44 9.9L25.52 42H37.76V-2.86102e-06H28.76L29.18 30.6ZM57.4761 10.86C51.2961 10.86 45.5361 14.52 45.2361 20.82H53.6361C53.8161 19.08 54.9561 17.52 57.3561 17.52C59.6961 17.52 60.8361 19.26 60.8361 21.6V24.3C59.6361 23.52 57.6561 22.86 55.0761 22.86C49.0161 22.86 44.2161 26.82 44.2161 32.94C44.2161 38.7 48.5361 42.6 54.2361 42.6C55.9761 42.6 57.1761 42.3 58.1961 41.88L60.8361 39.18V42H69.3561V21.48C69.3561 14.16 64.0161 10.86 57.4761 10.86ZM56.9961 36.24C54.5961 36.24 52.7961 34.5 52.7961 32.28C52.7961 30.06 54.5961 28.32 56.9961 28.32C59.5161 28.32 61.3761 30.06 61.3761 32.22C61.3761 34.44 59.5161 36.24 56.9961 36.24ZM111.754 10.86C109.234 10.86 107.554 11.4 106.774 11.76L102.334 16.26C100.594 12.84 97.1736 10.86 93.5136 10.86C90.6936 10.86 89.3736 11.64 88.6536 11.94L85.2936 15.3V11.46H76.7736V42H85.2936V24.78C85.2936 20.7 87.2136 18.6 90.3336 18.6C93.5136 18.6 95.4336 21.3 95.4336 24.78V42H103.834V24.78C103.834 20.7 106.234 18.6 108.934 18.6C112.054 18.6 113.974 21.3 113.974 24.78V42H122.494V21.9C122.494 14.88 117.154 10.86 111.754 10.86ZM143.9 42.6C148.46 42.6 152.54 40.86 155.3 38.4L151.64 32.28C150.14 33.42 147.74 34.92 144.2 34.92C140.36 34.92 137.54 33 136.52 29.64H151.64L157.52 23.28C156.44 14.4 149.36 10.86 143.42 10.86C140.9 10.86 139.04 11.4 138.08 11.82L133.82 16.14C129.8 20.28 128.18 23.88 128.18 28.26C128.18 36.48 134.6 42.6 143.9 42.6ZM136.46 23.58C137.36 20.52 139.58 18.3 142.94 18.3C146.84 18.3 148.94 20.76 149.54 23.58H136.46ZM176.653 42.6C181.213 42.6 185.293 40.86 188.053 38.4L184.393 32.28C182.893 33.42 180.493 34.92 176.953 34.92C173.113 34.92 170.293 33 169.273 29.64H184.393L190.273 23.28C189.193 14.4 182.113 10.86 176.173 10.86C173.653 10.86 171.793 11.4 170.833 11.82L166.573 16.14C162.553 20.28 160.933 23.88 160.933 28.26C160.933 36.48 167.353 42.6 176.653 42.6ZM169.213 23.58C170.113 20.52 172.333 18.3 175.693 18.3C179.593 18.3 181.693 20.76 182.293 23.58H169.213ZM209.407 42.6C213.967 42.6 218.047 40.86 220.807 38.4L217.147 32.28C215.647 33.42 213.247 34.92 209.707 34.92C205.867 34.92 203.047 33 202.027 29.64H217.147L223.027 23.28C221.947 14.4 214.867 10.86 208.927 10.86C206.407 10.86 204.547 11.4 203.587 11.82L199.327 16.14C195.307 20.28 193.687 23.88 193.687 28.26C193.687 36.48 200.107 42.6 209.407 42.6ZM201.967 23.58C202.867 20.52 205.087 18.3 208.447 18.3C212.347 18.3 214.447 20.76 215.047 23.58H201.967Z" fill="#799E6C"/>
</svg>
