<svg width="117" height="26" viewBox="0 0 117 26" fill="none" xmlns="http://www.w3.org/2000/svg">
<path d="M8.16956 20.28C9.28956 20.28 10.1856 20.028 10.8576 19.72L12.8456 17.676C14.4976 16.024 15.0856 14.316 15.0856 12.552C15.0856 8.688 11.8656 5.608 7.91756 5.608C6.65756 5.608 5.67756 5.888 5.22956 6.14L3.15756 8.268C1.64556 9.808 0.973563 11.516 0.973563 13.336C0.973563 17.172 4.19356 20.28 8.16956 20.28ZM8.47756 17.984C5.87356 17.984 3.38156 15.632 3.38156 12.524C3.38156 9.612 5.42556 7.876 7.58156 7.876C10.1856 7.876 12.7056 10.228 12.7056 13.336C12.7056 16.248 10.6336 17.984 8.47756 17.984ZM25.7407 5.608C24.7887 5.608 23.8087 5.776 23.3327 6.056L21.3447 8.072V5.888H18.8527V25.04H21.3447V18.068C22.3527 19.412 24.1447 20.28 26.1887 20.28C27.1687 20.28 28.0087 20.056 28.5407 19.776L30.3607 17.9C32.1247 16.052 32.7407 14.316 32.7407 12.58C32.7407 8.688 29.6887 5.608 25.7407 5.608ZM26.1887 17.984C23.8367 17.984 21.2047 16.136 21.1487 12.552C21.1487 9.64 23.0527 7.876 25.3487 7.876C27.6727 7.876 30.3047 9.752 30.3327 13.336C30.3607 16.248 28.4287 17.984 26.1887 17.984ZM42.4254 20.28C44.5814 20.28 46.4574 19.412 47.7174 18.124L46.4014 16.276C45.6174 17.06 44.3854 17.9 42.5374 17.9C40.1294 17.9 38.2254 16.304 37.9174 13.756H46.6534L48.7254 11.544C48.3614 7.372 45.1974 5.608 42.4254 5.608C41.1094 5.608 40.2414 5.944 39.8774 6.14L37.9454 8.128C36.2374 9.864 35.4814 11.656 35.4814 13.56C35.4814 17.648 38.5334 20.28 42.4254 20.28ZM38.0574 11.516C38.5334 9.304 40.1294 7.876 42.1454 7.876C44.6934 7.876 45.9534 9.556 46.3174 11.516H38.0574ZM54.5947 20V11.992C54.5947 9.416 56.0227 7.876 58.0947 7.876C60.1947 7.876 61.4547 9.416 61.4547 11.992V20H63.9187V11.32C63.9187 7.848 61.9307 5.608 58.6267 5.608C57.5627 5.608 56.8067 5.86 56.4987 6L54.5947 7.96V5.888H52.1027V20H54.5947ZM84.9996 7.204C83.9916 6.196 82.3956 5.608 80.7716 5.608C79.7636 5.608 78.9796 5.86 78.5596 6.056L76.9076 7.82C75.3396 9.472 74.6116 11.18 74.6116 12.86C74.6116 16.164 77.0756 19.076 81.0516 19.076C82.1716 19.076 83.0116 18.824 83.4596 18.6L84.9996 17.004V18.908C84.9996 21.316 83.5996 23.108 81.2756 23.108C79.1476 23.108 78.0276 21.904 77.9156 20.672H75.3396C75.4796 23.612 77.8316 25.32 81.0516 25.32C82.1996 25.32 83.1236 25.04 83.5996 24.816L85.6716 22.632C87.1836 21.064 87.4916 19.608 87.4916 17.676V5.888H84.9996V7.204ZM81.4436 16.808C79.3716 16.808 77.0196 15.24 77.0196 12.104C77.0196 9.696 78.5036 7.876 80.7996 7.876C82.8156 7.876 85.1116 9.416 85.1956 12.58C85.2516 14.96 83.7116 16.808 81.4436 16.808ZM95.0719 4.236V1.184H91.8239V4.236H95.0719ZM94.7079 20V5.888H92.2159V20H94.7079ZM106.407 2.78V0.399999H103.859L101.591 2.752C100.919 3.48 100.611 4.04 100.611 4.936V5.888H97.8667V8.184H100.611V20H103.103V8.184H106.407V5.888H103.103V4.656C103.103 3.34 103.607 2.78 104.923 2.78H106.407ZM113.501 5.888V1.688H111.009V5.888H107.845V8.212H111.009V20H113.501V8.212H116.665V5.888H113.501Z" fill="#535353"/>
</svg>
